<svg width="224" height="224" viewBox="0 0 224 224" fill="none" xmlns="http://www.w3.org/2000/svg">
<path d="M210.341 112C210.341 166.313 166.312 210.342 112 210.342C57.6875 210.342 13.6585 166.313 13.6585 112C13.6585 57.6877 57.6875 13.6587 112 13.6587C166.312 13.6587 210.341 57.6877 210.341 112ZM62.4414 112C62.4414 139.371 84.6295 161.559 112 161.559C139.37 161.559 161.559 139.371 161.559 112C161.559 84.6297 139.37 62.4415 112 62.4415C84.6295 62.4415 62.4414 84.6297 62.4414 112Z" fill="#0A4337"/>
<path d="M77.4195 5.47211C94.2428 0.0110263 112.12 -1.38797 129.588 1.38965C147.056 4.16728 163.618 11.0425 177.918 21.4525C192.217 31.8625 203.848 45.5113 211.858 61.2812C219.868 77.0512 224.029 94.4939 224 112.181L148.69 112.059C148.699 106.265 147.336 100.551 144.712 95.385C142.089 90.219 138.278 85.7478 133.594 82.3376C128.91 78.9274 123.484 76.6751 117.762 75.7652C112.039 74.8553 106.183 75.3136 100.672 77.1025L77.4195 5.47211Z" fill="#71D1B3"/>
</svg>
