<svg width="64" height="50" viewBox="0 0 64 50" fill="none" xmlns="http://www.w3.org/2000/svg">
<path fill-rule="evenodd" clip-rule="evenodd" d="M32.1551 31.5917C28.9199 30.4947 25.8306 29.0153 22.9544 27.1858C27.386 22.4817 30.4548 16.6856 31.839 10.4056H37.9412V6.2496H23.1125C22.9459 5.65161 22.7346 5.06669 22.4801 4.49971C21.7213 2.46859 20.8676 0 20.8676 0L16.2199 1.5624C16.2199 1.5624 17.4846 4.34347 18.1169 6.2496H0V10.4056H6.79779C8.18329 16.7114 11.3012 22.5176 15.8088 27.1858C10.9237 30.186 5.58773 32.4009 0 33.7478C1.18039 35.4561 2.0973 36.8935 2.75074 38.0601C8.56112 36.1349 14.1055 33.5001 19.2551 30.2168C22.7538 32.5262 26.5363 34.3848 30.511 35.7477L32.1551 31.5917ZM58.6824 49.9968H63.2353L48.8176 14.0928H42.8419L28.4559 49.9343H32.8191C33.281 49.9483 33.7316 49.7924 34.0838 49.4968C34.3897 49.2452 34.6286 48.9234 34.7794 48.5594L37.9412 40.6224H53.75L56.6904 48.6531C56.8503 49.0292 57.0998 49.3616 57.4176 49.6218C57.7814 49.89 58.2293 50.0228 58.6824 49.9968ZM47.0787 23.436L52.0743 36.5289L39.6485 36.5602L44.6441 23.4672L45.2449 21.7174C45.4556 21.0507 45.6559 20.332 45.8456 19.5612C46.1831 20.8746 46.5948 22.1682 47.0787 23.436ZM27.0015 10.4056H11.4772C12.6819 15.6763 15.3797 20.4993 19.2551 24.3109C23.2774 20.6153 25.9927 15.7409 27.0015 10.4056Z" fill="#71D1B3"/>
</svg>
